<?xml version="1.0" encoding="utf-8"?>
<svg version="1.1" id="icon" xmlns="http://www.w3.org/2000/svg" xmlns:xlink="http://www.w3.org/1999/xlink" x="0px" y="0px"
	 viewBox="0 0 32 32" style="enable-background:new 0 0 32 32;" xml:space="preserve">
<style type="text/css">
	.st0{fill:none;}
</style>
<path d="M25,10H7c-1.7,0-3,1.3-3,3v6c0,1.1,0.9,2,2,2v7c0,1.1,0.9,2,2,2h4c1.1,0,2-0.9,2-2V16h-2v12H8v-9H6v-6c0-0.6,0.4-1,1-1h18
	c0.6,0,1,0.4,1,1v6h-2v9h-4V16h-2v12c0,1.1,0.9,2,2,2h4c1.1,0,2-0.9,2-2v-7c1.1,0,2-0.9,2-2v-6C28,11.3,26.7,10,25,10z"/>
<path d="M10,9C7.8,9,6,7.2,6,5s1.8-4,4-4s4,1.8,4,4S12.2,9,10,9z M10,3C8.9,3,8,3.9,8,5s0.9,2,2,2s2-0.9,2-2S11.1,3,10,3z"/>
<path d="M22,9c-2.2,0-4-1.8-4-4s1.8-4,4-4s4,1.8,4,4S24.2,9,22,9z M22,3c-1.1,0-2,0.9-2,2s0.9,2,2,2s2-0.9,2-2S23.1,3,22,3z"/>
<rect id="_Transparent_Rectangle_" y="0" class="st0" width="32" height="32"/>
</svg>
