<svg width="32" height="32" viewBox="0 0 32 32" fill="none" xmlns="http://www.w3.org/2000/svg">
<path d="M16.0625 7C6.74516 7 2 16.375 2 16.375C2 16.375 6.74516 25.75 16.0625 25.75C25.3808 25.75 30.125 16.375 30.125 16.375C30.125 16.375 25.3808 7 16.0625 7ZM16.0625 24.1863C8.29813 24.1863 4.34375 16.375 4.34375 16.375C4.34375 16.375 8.29813 8.56187 16.0625 8.56187C23.8278 8.56187 27.7812 16.375 27.7812 16.375C27.7812 16.375 23.8278 24.1863 16.0625 24.1863Z" fill="white"/>
<path d="M16.0156 23.1719C12.268 23.1719 9.21875 20.1227 9.21875 16.375C9.21875 12.6273 12.268 9.57812 16.0156 9.57812C19.7633 9.57812 22.8125 12.6273 22.8125 16.375C22.8125 20.1227 19.7638 23.1719 16.0156 23.1719ZM16.0156 10.9844C13.0433 10.9844 10.625 13.4027 10.625 16.375C10.625 19.3473 13.0433 21.7656 16.0156 21.7656C18.988 21.7656 21.4063 19.3473 21.4063 16.375C21.4063 13.4027 18.988 10.9844 16.0156 10.9844Z" fill="white"/>
</svg>
