<?xml version="1.0" encoding="utf-8"?>
<svg version="1.1" id="d" xmlns="http://www.w3.org/2000/svg" xmlns:xlink="http://www.w3.org/1999/xlink" x="0px" y="0px"
	 viewBox="0 0 418 418" style="enable-background:new 0 0 418 418;" xml:space="preserve">
		 <style>
	
.pthsvgicons {
    fill: white !important;
}​

</style>
<g>
	<g>
		<g>
			<path class="pthsvgicons" d="M399.7,297.1l16.9-24.9c1.8-2.7,1.8-6.3,0-9l-16.9-24.9l16.9-24.9c1.8-2.7,1.8-6.3,0-9l-16.9-24.9l16.9-24.9
				c1.9-2.7,1.9-6.3,0-9l-16.9-24.9L416.6,96c2.5-3.7,1.5-8.6-2.1-11.1c-1.7-1.1-3.6-1.6-5.5-1.3c-0.3,0-0.7-0.1-1-0.1H8
				c-4.4,0-8,3.6-8,8v235c0,4.4,3.6,8,8,8h400c0.3,0,0.7,0,1-0.1c0.3,0,0.7,0.1,1,0.1c1.6,0,3.1-0.5,4.5-1.4
				c3.7-2.5,4.6-7.5,2.1-11.1L399.7,297.1z M16,318.5v-219h378.9l-11.5,16.9c-1.9,2.7-1.9,6.3,0,9l16.9,24.9l-16.9,24.9
				c-1.9,2.7-1.9,6.3,0,9l16.9,24.9l-16.9,24.9c-1.8,2.7-1.8,6.3,0,9l16.9,24.9l-16.9,24.9c-1.8,2.7-1.8,6.3,0,9l11.5,16.9H16z"/>
			<path class="pthsvgicons" d="M159,118.5H51c-4.4,0-8,3.6-8,8v165c0,4.4,3.6,8,8,8h108c4.4,0,8-3.6,8-8v-165
				C167,122.1,163.4,118.5,159,118.5z M151,283.5H59v-13h92V283.5z M151,254.5H59v-120h92V254.5z"/>
			<path class="pthsvgicons" d="M330,129.5H219c-4.4,0-8,3.6-8,8c0,4.4,3.6,8,8,8h111c4.4,0,8-3.6,8-8S334.4,129.5,330,129.5z"/>
			<path class="pthsvgicons" d="M330,165.2H219c-4.4,0-8,3.6-8,8c0,4.4,3.6,8,8,8h111c4.4,0,8-3.6,8-8S334.4,165.2,330,165.2z"/>
			<path class="pthsvgicons" d="M330,201H219c-4.4,0-8,3.6-8,8c0,4.4,3.6,8,8,8h111c4.4,0,8-3.6,8-8S334.4,201,330,201z"/>
			<path class="pthsvgicons" d="M330,236.8H219c-4.4,0-8,3.6-8,8c0,4.4,3.6,8,8,8h111c4.4,0,8-3.6,8-8S334.4,236.8,330,236.8z"/>
			<path class="pthsvgicons" d="M330,272.5H219c-4.4,0-8,3.6-8,8c0,4.4,3.6,8,8,8h111c4.4,0,8-3.6,8-8C338,276.1,334.4,272.5,330,272.5z"/>
		</g>
	</g>
</g>
</svg>
