<?xml version="1.0" encoding="utf-8"?>
<svg version="1.1" id="k" xmlns="http://www.w3.org/2000/svg" xmlns:xlink="http://www.w3.org/1999/xlink" x="0px" y="0px"
	 viewBox="0 0 490 490" style="enable-background:new 0 0 490 490;" xml:space="preserve">
		 <style>
	
.pthsvgicons {
    fill: white !important;
}​

</style>
<g>
	<path class="pthsvgicons" d="M224.8,305.1h180.3c4,0,7.6-2.4,9.2-6l74.9-173.4c1.3-3.1,1-6.6-0.8-9.5c-1.8-2.8-5-4.5-8.4-4.5H129.4
		l-20.7-63.2c-1.3-4.1-5.2-6.9-9.5-6.9H10c-5.5,0-10,4.5-10,10s4.5,10,10,10h82l77.4,236.6c1.3,4.1,5.2,6.9,9.5,6.9h23.4l-28.5,54.7
		c-3.6-1-7.5-1.5-11.4-1.5c-24.8,0-45.1,20.2-45.1,45.1c0,24.8,20.2,45.1,45.1,45.1c21.4,0,39.4-15,43.9-35.1h176.7
		c4.6,20,22.5,35.1,43.9,35.1c24.8,0,45.1-20.2,45.1-45.1c0-24.8-20.2-45.1-45.1-45.1c-21.4,0-39.4,15-43.9,35.1H206.3
		c-2.2-9.6-7.5-18.1-14.8-24.3l32.8-63C224.5,305.7,224.7,305.4,224.8,305.1z M266.7,131.7h53.9l-28.8,66.7h-53.9L266.7,131.7z
		 M216.2,198.4h-53.9l28.8-66.7H245L216.2,198.4z M313.6,198.4l28.8-66.7h53.9l-28.8,66.7H313.6z M358.8,218.4L330,285.1h-53.9
		l28.8-66.7H358.8z M283.2,218.4l-28.8,66.7h-53.9l28.8-66.7H283.2z M398.5,285.1h-46.7l28.8-66.7h46.7L398.5,285.1z M436,198.4
		h-46.7l28.8-66.7h46.7L436,198.4z M169.3,131.7l-19,44l-14.4-44H169.3z M164.3,218.4h43.2l-24.6,56.9L164.3,218.4z M162.4,428.4
		c-13.8,0-25.1-11.2-25.1-25.1c0-13.8,11.2-25.1,25.1-25.1c13.8,0,25,11.2,25,25.1C187.4,417.2,176.2,428.4,162.4,428.4z
		 M426.9,378.3c13.8,0,25.1,11.2,25.1,25.1c0,13.8-11.2,25.1-25.1,25.1c-13.8,0-25-11.2-25-25.1C401.8,389.5,413,378.3,426.9,378.3z
		"/>
</g>
</svg>
