<svg width="97" height="35" viewBox="0 0 97 35" fill="none" xmlns="http://www.w3.org/2000/svg">
<path d="M2.1206 8.75812V6.62937C2.1206 2.75819 0.723909 1.45068 0 1.3075V0.775317H19.2334C20.3421 0.775317 21.0176 0.775317 21.6931 0H22.1748V9.58206H21.6446C20.5843 8.37181 17.5945 7.21018 12.4868 7.21018C7.80961 7.21018 5.06198 7.69374 2.1206 8.75812ZM12.1961 34.5003H0V33.9681C0.627029 33.8708 2.1206 32.5174 2.1206 28.6462V12.3402C4.28963 11.2272 6.50711 10.5978 9.44849 10.5006V28.1627C9.44849 31.8393 10.4604 33.1955 12.1961 33.9708V34.5003ZM38.6121 1.3075C37.985 1.40476 36.4915 2.75819 36.4915 6.62937V11.1786C34.3709 12.5807 31.5748 13.4046 29.1636 13.7423V6.62937C29.1636 2.75819 27.67 1.40476 27.043 1.3075V0.775317H38.6121V1.3075ZM29.1636 28.549V17.3244C34.0802 16.4546 40.3478 13.6477 43.1897 10.6951H43.6714V19.3559C41.9356 20.8066 38.9969 22.3572 36.4888 23.2271V28.6462C36.4888 32.5174 37.9824 33.8735 38.6094 33.9681V34.5003H27.0403V33.9681C27.67 33.8735 29.1636 32.4202 29.1636 28.549ZM54.3255 6.62937V28.6462C54.3255 32.5174 55.819 33.8735 56.4461 33.9681V34.5003H44.877V33.9681C45.504 33.8708 46.9976 32.5174 46.9976 28.6462V6.62937C46.9976 2.75819 45.504 1.40476 44.877 1.3075V0.775317H56.4461V1.3075C55.819 1.40206 54.3255 2.75819 54.3255 6.62937ZM61.4596 1.3075V0.775317H74.7645C77.5605 2.85544 80.066 6.09718 81.6107 8.46906C81.8986 8.90399 82.0924 9.00125 82.3346 9.00125C82.6225 9.00125 82.8647 8.80674 83.01 8.56631H83.7339L79.0541 19.9367H78.524C75.1977 11.4191 68.9328 4.06569 61.4596 1.3075ZM73.5589 34.5003H61.8929V33.9681C62.5199 33.8708 64.0135 32.5174 64.0135 28.6462V6.48349C67.0975 8.56361 69.6541 11.0814 71.4356 14.2259V28.6462C71.4356 32.5174 72.9291 33.8735 73.5562 33.9681V34.5003H73.5589ZM93.9494 28.6462C93.9494 32.5174 95.443 33.8735 96.07 33.9681V34.5003H84.5009V33.9681C85.1279 33.8708 86.6215 32.5174 86.6215 28.6462V0.775317H96.07V1.3075C95.443 1.40476 93.9494 2.75819 93.9494 6.62937V28.6462Z" fill="black"/>
</svg>
