<svg width="21" height="31" viewBox="0 0 21 31" fill="none" xmlns="http://www.w3.org/2000/svg">
<path fill-rule="evenodd" clip-rule="evenodd" d="M15.3792 13.109C14.05 14.4462 12.1954 15.2755 10.1449 15.2755C8.09447 15.2755 6.2398 14.4462 4.91061 13.109C3.58143 11.7717 2.75713 9.90582 2.75713 7.84293C2.75713 5.78004 3.58143 3.91411 4.91061 2.57686C6.2398 1.23961 8.09447 0.410309 10.1449 0.410309C12.1954 0.410309 14.05 1.23961 15.3792 2.57686C16.7084 3.91411 17.5327 5.78004 17.5327 7.84293C17.5327 9.90582 16.7187 11.7717 15.3792 13.109ZM10.1449 4.49462C9.21758 4.49462 8.37268 4.87817 7.78536 5.47942C7.16714 6.10139 6.80651 6.92033 6.80651 7.85329C6.80651 8.78626 7.18774 9.63629 7.78536 10.2272C8.40359 10.8491 9.21758 11.212 10.1449 11.212C11.0723 11.212 11.9172 10.8284 12.5045 10.2272C13.1227 9.6052 13.4833 8.78626 13.4833 7.85329C13.4833 6.92033 13.1021 6.0703 12.5045 5.47942C11.9172 4.85744 11.0723 4.49462 10.1449 4.49462ZM17.9243 15.3377L20.0777 18.3025C20.1808 18.458 20.1499 18.6653 20.0262 18.769C18.2025 20.2617 16.0799 21.2776 13.8646 21.7856L18.0479 29.892C18.1715 30.1201 17.9964 30.4103 17.7388 30.4103H13.2773C13.1536 30.4103 13.0197 30.3377 12.9682 30.203L10.1449 23.5167L7.32169 30.203C7.27017 30.3274 7.14653 30.4103 7.01258 30.4103H2.52014C2.26255 30.4103 2.08738 30.1304 2.21103 29.892L6.41496 21.7856C4.20996 21.2673 2.07708 20.2617 0.253316 18.769C0.129671 18.6653 0.0987594 18.458 0.201797 18.3025L2.38619 15.3377C2.50984 15.1823 2.74682 15.1615 2.90138 15.2859C4.95183 17.0378 7.46595 18.1781 10.1655 18.1781C12.8651 18.1781 15.3792 17.0378 17.4297 15.2859C17.5636 15.1304 17.7903 15.1512 17.9243 15.3377Z" fill="black"/>
</svg>
