<svg width="24" height="24" viewBox="0 0 24 24" fill="none" xmlns="http://www.w3.org/2000/svg">
<path d="M13.6841 0.840942C15.6881 0.844982 16.1284 0.861754 17.1668 0.909135C18.3915 0.965039 19.2279 1.15951 19.9598 1.44397C20.7164 1.73801 21.358 2.13144 21.9977 2.77109C22.6374 3.41074 23.0308 4.0524 23.3248 4.80902C23.6093 5.54093 23.8037 6.3773 23.8597 7.60202C23.9113 8.73481 23.9266 9.15582 23.9286 11.6717V13.0201C23.9266 15.536 23.9113 15.957 23.8597 17.0898C23.8037 18.3145 23.6093 19.1509 23.3248 19.8828C23.0308 20.6394 22.6374 21.2811 21.9977 21.9207C21.358 22.5604 20.7164 22.9538 19.9598 23.2478C19.2279 23.5323 18.3915 23.7268 17.1668 23.7827C16.034 23.8344 15.613 23.8496 13.0971 23.8516H11.7487C9.23281 23.8496 8.81184 23.8344 7.67901 23.7827C6.45428 23.7268 5.61792 23.5323 4.88601 23.2478C4.12939 22.9538 3.48772 22.5604 2.84807 21.9207C2.20842 21.2811 1.81499 20.6394 1.52095 19.8828C1.2365 19.1509 1.04202 18.3145 0.986118 17.0898C0.938738 16.0514 0.921998 15.6111 0.917969 13.6071V11.0847C0.921998 9.08071 0.938738 8.64041 0.986118 7.60202C1.04202 6.3773 1.2365 5.54093 1.52095 4.80902C1.81499 4.0524 2.20842 3.41074 2.84807 2.77109C3.48772 2.13144 4.12939 1.73801 4.88601 1.44397C5.61792 1.15951 6.45428 0.965039 7.67901 0.909135C8.71744 0.861754 9.1577 0.844982 11.1617 0.840942H13.6841ZM13.6685 3.13414H11.1671C9.284 3.13788 8.8742 3.15319 7.87935 3.19858C6.78434 3.24856 6.18965 3.43153 5.79389 3.5853C5.26964 3.78904 4.89545 4.03246 4.50245 4.42546C4.10945 4.81846 3.86603 5.19265 3.66233 5.71686C3.50852 6.11266 3.32555 6.70736 3.27557 7.80241C3.23018 8.79722 3.21487 9.20702 3.21113 11.0902V13.5915C3.21487 15.4746 3.23018 15.8844 3.27557 16.8793C3.32555 17.9743 3.50852 18.569 3.66233 18.9648C3.86603 19.489 4.10945 19.8632 4.50245 20.2562C4.89545 20.6492 5.26964 20.8926 5.79389 21.0963C6.18965 21.2501 6.78434 21.4331 7.87939 21.4831C8.96879 21.5328 9.35658 21.5464 11.747 21.5483H13.0886C15.4791 21.5464 15.8668 21.5328 16.9562 21.4831C18.0513 21.4331 18.646 21.2501 19.0418 21.0963C19.566 20.8926 19.9402 20.6492 20.3332 20.2562C20.7262 19.8632 20.9696 19.489 21.1733 18.9648C21.3271 18.569 21.5101 17.9743 21.5601 16.8792C21.6141 15.6949 21.6255 15.3398 21.6255 12.3408L21.6255 11.9934C21.6245 9.31216 21.6119 8.93934 21.5601 7.80236C21.5101 6.70736 21.3271 6.11266 21.1733 5.71686C20.9696 5.19265 20.7262 4.81846 20.3332 4.42546C19.9402 4.03246 19.566 3.78904 19.0418 3.5853C18.646 3.43153 18.0513 3.24856 16.9562 3.19858C15.9614 3.15319 15.5516 3.13788 13.6685 3.13414ZM12.4229 6.20744C15.813 6.20744 18.5613 8.95574 18.5613 12.3459C18.5613 15.7361 15.813 18.4844 12.4229 18.4844C9.03272 18.4844 6.28442 15.7361 6.28442 12.3459C6.28442 8.95574 9.03272 6.20744 12.4229 6.20744ZM12.4229 8.51055C10.3047 8.51055 8.58753 10.2277 8.58753 12.3459C8.58753 14.4641 10.3047 16.1813 12.4229 16.1813C14.5411 16.1813 16.2582 14.4641 16.2582 12.3459C16.2582 10.2277 14.5411 8.51055 12.4229 8.51055ZM18.5648 4.82327C19.3274 4.82327 19.9455 5.44141 19.9455 6.20397C19.9455 6.96653 19.3274 7.58471 18.5648 7.58471C17.8023 7.58471 17.1841 6.96653 17.1841 6.20397C17.1841 5.44141 17.8023 4.82327 18.5648 4.82327Z" fill="black"/>
</svg>
