<svg width="26" height="21" viewBox="0 0 26 21" fill="none" xmlns="http://www.w3.org/2000/svg">
<path d="M8.06347 20.5769C5.1001 20.5769 2.34206 19.7219 0.0195312 18.256C0.430183 18.3042 0.847939 18.3283 1.27138 18.3283C3.72961 18.3283 5.99245 17.5026 7.78852 16.117C5.49228 16.0754 3.55412 14.5817 2.88628 12.5297C3.2067 12.5903 3.53565 12.6225 3.87383 12.6225C4.35198 12.6225 4.81592 12.5596 5.25641 12.4412C2.85573 11.967 1.04687 9.87916 1.04687 7.37628C1.04687 7.35436 1.04687 7.33243 1.04758 7.31124C1.75521 7.69782 2.56372 7.9302 3.4241 7.95724C2.01595 7.03136 1.0895 5.44997 1.0895 3.65813C1.0895 2.71105 1.34811 1.82389 1.79997 1.06097C4.38821 4.18574 8.25459 6.24286 12.6162 6.4577C12.5266 6.0799 12.4798 5.68528 12.4798 5.28043C12.4798 2.42824 14.8293 0.115356 17.7273 0.115356C19.237 0.115356 20.6004 0.743088 21.5574 1.74643C22.7532 1.51478 23.8764 1.08509 24.8902 0.493164C24.4981 1.69893 23.6661 2.71178 22.5826 3.3512C23.6441 3.22624 24.6558 2.94855 25.5965 2.53786C24.8931 3.57336 24.0036 4.48316 22.9784 5.21174C22.9883 5.43316 22.9933 5.65605 22.9933 5.87966C22.9933 12.7058 17.7152 20.5769 8.06347 20.5769Z" fill="black"/>
</svg>
