<svg width="28" height="17" viewBox="0 0 28 17" fill="none" xmlns="http://www.w3.org/2000/svg">
<path d="M26.4444 1.60176C26.5614 1.00664 26.3038 0.673096 25.6943 0.673096H22.6245C21.9215 0.673096 21.6636 0.982571 21.4528 1.43499C21.4528 1.43499 19.8257 5.20375 17.8061 7.46802C17.1578 8.20008 17.044 8.42027 16.6862 8.42027C16.3974 8.42027 16.2643 8.17577 16.2643 7.51543V1.72973C16.2643 0.920182 16.1717 0.673096 15.5145 0.673096H10.628C10.251 0.673096 9.9992 0.88174 9.9992 1.184C9.9992 1.94637 11.1475 2.11844 11.1475 4.18418V8.44608C11.1475 9.30328 11.1006 9.63658 10.7022 9.63658C9.64771 9.63658 6.90922 5.96805 5.50326 1.77738C5.22188 0.920182 4.91865 0.673096 4.1193 0.673096H1.05731C0.612024 0.673096 0.277344 0.991414 0.277344 1.44384C0.277344 2.27721 1.23802 6.13458 5.01108 11.3013C7.54185 14.7775 11.0853 16.6587 14.0848 16.6587C15.9128 16.6587 16.2643 16.3362 16.2643 15.5503V12.8836C16.2643 12.217 16.522 11.9311 16.897 11.9311C17.3188 11.9311 17.9413 12.082 19.681 13.8253C21.7431 15.8253 21.8837 16.6587 23.0088 16.6587H26.4533C26.8051 16.6587 27.1331 16.4919 27.1331 15.8968C27.1331 15.1108 26.1253 13.7061 24.5787 12.0394C23.946 11.1822 22.9148 10.2538 22.5867 9.82518C22.118 9.32511 22.2587 9.03922 22.5867 8.51557C22.5867 8.51557 26.0927 3.2685 26.4444 1.60176Z" fill="black"/>
</svg>
