<svg width="193" height="69" viewBox="0 0 193 69" fill="none" xmlns="http://www.w3.org/2000/svg">
<path d="M4.24116 17.5161V13.2586C4.24116 5.51633 1.44781 2.90134 0 2.61499V1.55062H38.4664C40.6839 1.55062 42.0348 1.55062 43.3858 0H44.3492V19.164H43.2889C41.1683 16.7435 35.1887 14.4202 24.9733 14.4202C15.6191 14.4202 10.1239 15.3874 4.24116 17.5161ZM24.392 69H0V67.9356C1.25405 67.7411 4.24116 65.0343 4.24116 57.292V24.6803C8.5792 22.4543 13.0141 21.1954 18.8968 21.0009V56.3249C18.8968 63.6782 20.9205 66.3904 24.392 67.941V69ZM77.2235 2.61499C75.9695 2.80949 72.9824 5.51633 72.9824 13.2586V22.3571C68.7412 25.1611 63.1491 26.809 58.3267 27.4844V13.2586C58.3267 5.51633 55.3396 2.80949 54.0855 2.61499V1.55062H77.2235V2.61499ZM58.3267 57.0975V34.6486C68.1599 32.9089 80.695 27.2953 86.3786 21.3899H87.342V38.7115C83.8705 41.6129 77.9932 44.7141 72.977 46.4538V57.292C72.977 65.0343 75.9641 67.7465 77.2181 67.9356V69H54.0802V67.9356C55.3396 67.7465 58.3267 64.8398 58.3267 57.0975ZM108.65 13.2586V57.292C108.65 65.0343 111.637 67.7465 112.891 67.9356V69H89.7532V67.9356C91.0073 67.7411 93.9944 65.0343 93.9944 57.292V13.2586C93.9944 5.51633 91.0073 2.80949 89.7532 2.61499V1.55062H112.891V2.61499C111.637 2.80409 108.65 5.51633 108.65 13.2586ZM122.918 2.61499V1.55062H149.528C155.12 5.71083 160.131 12.1943 163.22 16.938C163.796 17.8078 164.183 18.0023 164.668 18.0023C165.244 18.0023 165.728 17.6133 166.019 17.1325H167.467L158.107 39.8732H157.047C150.394 22.8379 137.865 8.13131 122.918 2.61499ZM147.117 69H123.785V67.9356C125.039 67.7411 128.026 65.0343 128.026 57.292V12.9669C134.194 17.1271 139.307 22.1626 142.87 28.4515V57.292C142.87 65.0343 145.857 67.7465 147.111 67.9356V69H147.117ZM187.897 57.292C187.897 65.0343 190.884 67.7465 192.138 67.9356V69H169V67.9356C170.255 67.7411 173.242 65.0343 173.242 57.292V1.55062H192.138V2.61499C190.884 2.80949 187.897 5.51633 187.897 13.2586V57.292Z" fill="white"/>
</svg>
