<svg width="24" height="16" viewBox="0 0 24 16" fill="none" xmlns="http://www.w3.org/2000/svg">
<path d="M0 14.17V15.03H4.96V14.17H3.46L2.9 13.49L3.88 10.67H8.78L10.1 14.17H8.4V15.03H13.9V14.17H12.52L7.44 0.75L6.32 0.890001L1.26 14.17H0ZM8.42 9.63H4.24L6.26 3.59L8.42 9.63Z" fill="white"/>
<path d="M17.1608 15.25C18.8208 15.25 19.9008 14.33 20.4408 13.17C20.4808 14.69 21.2208 15.03 22.3208 15.03H23.8608V14.23C22.9808 14.23 22.5208 14.13 22.5208 13.25V8.41C22.5208 5.27 20.3408 4.51 18.7208 4.51C16.6608 4.51 14.8208 5.65 14.8208 7.07C14.8208 7.85 15.3808 8.33 16.0608 8.33C16.4808 8.33 16.9608 8.13 17.2808 7.71L16.6208 5.95C17.0608 5.61 17.6408 5.47 18.2808 5.47C19.6608 5.47 20.4608 6.31 20.4608 7.99V9.07C19.4008 9.15 18.4608 9.15 17.4008 9.41C15.7808 9.81 14.3208 10.67 14.3208 12.59C14.3208 14.33 15.5208 15.25 17.1608 15.25ZM17.9208 13.99C17.1808 13.99 16.4008 13.59 16.4008 12.45C16.4008 11.57 16.8608 10.91 17.7208 10.51C18.3208 10.23 19.2208 10.05 20.4608 9.89V10.49C20.4608 12.51 19.3208 13.99 17.9208 13.99Z" fill="white"/>
</svg>
