<?xml version="1.0" standalone="no"?>
<!DOCTYPE svg PUBLIC "-//W3C//DTD SVG 20010904//EN"
 "http://www.w3.org/TR/2001/REC-SVG-20010904/DTD/svg10.dtd">
<svg version="1.0" xmlns="http://www.w3.org/2000/svg"
 width="1501.000000pt" height="1169.000000pt" viewBox="0 0 1501.000000 1169.000000"
 preserveAspectRatio="xMidYMid meet">

<g transform="translate(0.000000,1169.000000) scale(0.100000,-0.100000)"
fill="#ffffff" stroke="none">
<path d="M9005 11655 c-274 -60 -505 -257 -603 -513 -42 -109 -55 -182 -55
-302 0 -120 13 -193 55 -302 66 -173 -11 -92 1946 -2050 l1817 -1818 -5708 0
c-5143 0 -5715 -2 -5785 -16 -378 -77 -662 -426 -662 -814 0 -388 284 -737
662 -814 70 -14 642 -16 5785 -16 l5708 0 -1817 -1817 c-1957 -1959 -1880
-1878 -1946 -2051 -42 -109 -55 -182 -55 -302 0 -120 13 -193 55 -302 87 -228
279 -409 518 -489 79 -27 115 -33 216 -37 190 -7 345 33 496 130 91 58 5169
5133 5237 5234 188 280 188 648 0 928 -68 101 -5146 5176 -5237 5234 -83 53
-189 97 -284 116 -92 19 -259 20 -343 1z"/>
</g>
</svg>
