<?xml version="1.0" encoding="utf-8"?>
<svg version="1.1" id="icon" xmlns="http://www.w3.org/2000/svg" xmlns:xlink="http://www.w3.org/1999/xlink" x="0px" y="0px"
	 viewBox="0 0 32 32" style="enable-background:new 0 0 32 32;" xml:space="preserve">
<style type="text/css">
	.st0{fill:#FFFFFF;}
</style>
<path class="st0" d="M29.41,19l-1.71-1.71c0.2-0.4,0.3-0.84,0.3-1.29c0-1.66-1.34-3-3-3s-3,1.34-3,3s1.34,3,3,3
	c0.45,0,0.89-0.1,1.29-0.3L28,20.41V28h-6v-3c0-3.86-3.14-7-7-7H9c-3.86,0-7,3.14-7,7v5h28v-9.59C30,19.88,29.79,19.37,29.41,19z
	 M4,25c0-2.76,2.24-5,5-5h6c2.76,0,5,2.24,5,5v3H4V25z"/>
<path class="st0" d="M12,4c2.76,0,5,2.24,5,5s-2.24,5-5,5s-5-2.24-5-5S9.24,4,12,4 M12,2C8.13,2,5,5.13,5,9s3.13,7,7,7s7-3.13,7-7
	S15.87,2,12,2z"/>
</svg>
